<mxfile host="app.diagrams.net" modified="2023-10-28T23:42:47.972Z" agent="Mozilla/5.0 (Windows NT 10.0; Win64; x64) AppleWebKit/537.36 (KHTML, like Gecko) Chrome/118.0.0.0 Safari/537.36" etag="zOKlRTzHaEhrLV3Ftude" version="22.0.8" type="device">
  <diagram name="Page-1" id="qkqIchVZhZY8W-sXtKBL">
    <mxGraphModel dx="1686" dy="476" grid="1" gridSize="10" guides="1" tooltips="1" connect="1" arrows="1" fold="1" page="1" pageScale="1" pageWidth="827" pageHeight="1169" math="0" shadow="0">
      <root>
        <mxCell id="0" />
        <mxCell id="1" parent="0" />
        <mxCell id="Cs67nd-qoP5mz5DRE6a3-6" style="edgeStyle=orthogonalEdgeStyle;rounded=0;orthogonalLoop=1;jettySize=auto;html=1;exitX=1;exitY=0.5;exitDx=0;exitDy=0;entryX=0;entryY=0.5;entryDx=0;entryDy=0;" edge="1" parent="1" source="Cs67nd-qoP5mz5DRE6a3-1" target="Cs67nd-qoP5mz5DRE6a3-2">
          <mxGeometry relative="1" as="geometry" />
        </mxCell>
        <mxCell id="Cs67nd-qoP5mz5DRE6a3-55" value="UserToDeck" style="edgeLabel;html=1;align=center;verticalAlign=middle;resizable=0;points=[];" vertex="1" connectable="0" parent="Cs67nd-qoP5mz5DRE6a3-6">
          <mxGeometry x="0.0077" relative="1" as="geometry">
            <mxPoint as="offset" />
          </mxGeometry>
        </mxCell>
        <mxCell id="Cs67nd-qoP5mz5DRE6a3-17" style="edgeStyle=orthogonalEdgeStyle;rounded=0;orthogonalLoop=1;jettySize=auto;html=1;exitX=1;exitY=1;exitDx=0;exitDy=0;entryX=0;entryY=0;entryDx=0;entryDy=0;" edge="1" parent="1" source="Cs67nd-qoP5mz5DRE6a3-1">
          <mxGeometry relative="1" as="geometry">
            <mxPoint x="130" y="330" as="sourcePoint" />
            <mxPoint x="360" y="490" as="targetPoint" />
            <Array as="points">
              <mxPoint x="130" y="330" />
              <mxPoint x="130" y="460" />
              <mxPoint x="360" y="460" />
            </Array>
          </mxGeometry>
        </mxCell>
        <mxCell id="Cs67nd-qoP5mz5DRE6a3-39" value="UserToCard" style="edgeLabel;html=1;align=center;verticalAlign=middle;resizable=0;points=[];" vertex="1" connectable="0" parent="Cs67nd-qoP5mz5DRE6a3-17">
          <mxGeometry x="-0.3519" y="-2" relative="1" as="geometry">
            <mxPoint as="offset" />
          </mxGeometry>
        </mxCell>
        <mxCell id="Cs67nd-qoP5mz5DRE6a3-23" style="edgeStyle=orthogonalEdgeStyle;rounded=0;orthogonalLoop=1;jettySize=auto;html=1;exitX=0;exitY=0.5;exitDx=0;exitDy=0;entryX=0.5;entryY=0;entryDx=0;entryDy=0;" edge="1" parent="1" source="Cs67nd-qoP5mz5DRE6a3-1" target="Cs67nd-qoP5mz5DRE6a3-21">
          <mxGeometry relative="1" as="geometry">
            <Array as="points">
              <mxPoint x="-150" y="240" />
            </Array>
          </mxGeometry>
        </mxCell>
        <mxCell id="Cs67nd-qoP5mz5DRE6a3-42" value="UserToGlobalTag" style="edgeLabel;html=1;align=center;verticalAlign=middle;resizable=0;points=[];" vertex="1" connectable="0" parent="Cs67nd-qoP5mz5DRE6a3-23">
          <mxGeometry x="0.26" y="1" relative="1" as="geometry">
            <mxPoint as="offset" />
          </mxGeometry>
        </mxCell>
        <mxCell id="Cs67nd-qoP5mz5DRE6a3-28" style="edgeStyle=orthogonalEdgeStyle;rounded=0;orthogonalLoop=1;jettySize=auto;html=1;exitX=0.5;exitY=1;exitDx=0;exitDy=0;entryX=0.5;entryY=0;entryDx=0;entryDy=0;" edge="1" parent="1" source="Cs67nd-qoP5mz5DRE6a3-1" target="Cs67nd-qoP5mz5DRE6a3-27">
          <mxGeometry relative="1" as="geometry" />
        </mxCell>
        <mxCell id="Cs67nd-qoP5mz5DRE6a3-47" value="UserToRating" style="edgeLabel;html=1;align=center;verticalAlign=middle;resizable=0;points=[];" vertex="1" connectable="0" parent="Cs67nd-qoP5mz5DRE6a3-28">
          <mxGeometry x="-0.0083" relative="1" as="geometry">
            <mxPoint as="offset" />
          </mxGeometry>
        </mxCell>
        <mxCell id="Cs67nd-qoP5mz5DRE6a3-33" style="edgeStyle=orthogonalEdgeStyle;rounded=0;orthogonalLoop=1;jettySize=auto;html=1;exitX=0.25;exitY=1;exitDx=0;exitDy=0;entryX=0.5;entryY=0;entryDx=0;entryDy=0;" edge="1" parent="1" source="Cs67nd-qoP5mz5DRE6a3-1" target="Cs67nd-qoP5mz5DRE6a3-22">
          <mxGeometry relative="1" as="geometry" />
        </mxCell>
        <mxCell id="Cs67nd-qoP5mz5DRE6a3-41" value="UserToPrivateTag" style="edgeLabel;html=1;align=center;verticalAlign=middle;resizable=0;points=[];" vertex="1" connectable="0" parent="Cs67nd-qoP5mz5DRE6a3-33">
          <mxGeometry x="0.0061" y="-3" relative="1" as="geometry">
            <mxPoint as="offset" />
          </mxGeometry>
        </mxCell>
        <mxCell id="Cs67nd-qoP5mz5DRE6a3-36" style="edgeStyle=orthogonalEdgeStyle;rounded=0;orthogonalLoop=1;jettySize=auto;html=1;exitX=1;exitY=0;exitDx=0;exitDy=0;entryX=0;entryY=0.5;entryDx=0;entryDy=0;" edge="1" parent="1" source="Cs67nd-qoP5mz5DRE6a3-1" target="Cs67nd-qoP5mz5DRE6a3-25">
          <mxGeometry relative="1" as="geometry" />
        </mxCell>
        <mxCell id="Cs67nd-qoP5mz5DRE6a3-54" value="UserToComment" style="edgeLabel;html=1;align=center;verticalAlign=middle;resizable=0;points=[];" vertex="1" connectable="0" parent="Cs67nd-qoP5mz5DRE6a3-36">
          <mxGeometry x="0.0745" y="-3" relative="1" as="geometry">
            <mxPoint as="offset" />
          </mxGeometry>
        </mxCell>
        <mxCell id="Cs67nd-qoP5mz5DRE6a3-1" value="User" style="rounded=0;whiteSpace=wrap;html=1;" vertex="1" parent="1">
          <mxGeometry x="-20" y="210" width="120" height="60" as="geometry" />
        </mxCell>
        <mxCell id="Cs67nd-qoP5mz5DRE6a3-2" value="Deck&lt;br&gt;" style="rounded=0;whiteSpace=wrap;html=1;" vertex="1" parent="1">
          <mxGeometry x="350" y="270" width="120" height="60" as="geometry" />
        </mxCell>
        <mxCell id="Cs67nd-qoP5mz5DRE6a3-4" style="edgeStyle=orthogonalEdgeStyle;rounded=0;orthogonalLoop=1;jettySize=auto;html=1;exitX=0.5;exitY=0;exitDx=0;exitDy=0;entryX=0.5;entryY=1;entryDx=0;entryDy=0;" edge="1" parent="1" source="Cs67nd-qoP5mz5DRE6a3-3" target="Cs67nd-qoP5mz5DRE6a3-2">
          <mxGeometry relative="1" as="geometry" />
        </mxCell>
        <mxCell id="Cs67nd-qoP5mz5DRE6a3-51" value="CardToDeck" style="edgeLabel;html=1;align=center;verticalAlign=middle;resizable=0;points=[];" vertex="1" connectable="0" parent="Cs67nd-qoP5mz5DRE6a3-4">
          <mxGeometry x="-0.0482" relative="1" as="geometry">
            <mxPoint as="offset" />
          </mxGeometry>
        </mxCell>
        <mxCell id="Cs67nd-qoP5mz5DRE6a3-3" value="Cards" style="rounded=0;whiteSpace=wrap;html=1;" vertex="1" parent="1">
          <mxGeometry x="350" y="490" width="120" height="60" as="geometry" />
        </mxCell>
        <mxCell id="Cs67nd-qoP5mz5DRE6a3-32" style="edgeStyle=orthogonalEdgeStyle;rounded=0;orthogonalLoop=1;jettySize=auto;html=1;exitX=1;exitY=0.5;exitDx=0;exitDy=0;entryX=0;entryY=0.75;entryDx=0;entryDy=0;" edge="1" parent="1" source="Cs67nd-qoP5mz5DRE6a3-21" target="Cs67nd-qoP5mz5DRE6a3-2">
          <mxGeometry relative="1" as="geometry">
            <Array as="points">
              <mxPoint x="280" y="630" />
              <mxPoint x="280" y="315" />
            </Array>
          </mxGeometry>
        </mxCell>
        <mxCell id="Cs67nd-qoP5mz5DRE6a3-44" value="GlobalTagToDeck" style="edgeLabel;html=1;align=center;verticalAlign=middle;resizable=0;points=[];" vertex="1" connectable="0" parent="Cs67nd-qoP5mz5DRE6a3-32">
          <mxGeometry x="-0.507" relative="1" as="geometry">
            <mxPoint as="offset" />
          </mxGeometry>
        </mxCell>
        <mxCell id="Cs67nd-qoP5mz5DRE6a3-21" value="Global Tag" style="rounded=0;whiteSpace=wrap;html=1;" vertex="1" parent="1">
          <mxGeometry x="-210" y="600" width="120" height="60" as="geometry" />
        </mxCell>
        <mxCell id="Cs67nd-qoP5mz5DRE6a3-34" style="edgeStyle=orthogonalEdgeStyle;rounded=0;orthogonalLoop=1;jettySize=auto;html=1;exitX=1;exitY=0.5;exitDx=0;exitDy=0;entryX=0;entryY=0.5;entryDx=0;entryDy=0;" edge="1" parent="1" source="Cs67nd-qoP5mz5DRE6a3-22" target="Cs67nd-qoP5mz5DRE6a3-3">
          <mxGeometry relative="1" as="geometry" />
        </mxCell>
        <mxCell id="Cs67nd-qoP5mz5DRE6a3-43" value="PrivateTagToCard" style="edgeLabel;html=1;align=center;verticalAlign=middle;resizable=0;points=[];" vertex="1" connectable="0" parent="Cs67nd-qoP5mz5DRE6a3-34">
          <mxGeometry x="0.0458" y="-2" relative="1" as="geometry">
            <mxPoint as="offset" />
          </mxGeometry>
        </mxCell>
        <mxCell id="Cs67nd-qoP5mz5DRE6a3-35" style="edgeStyle=orthogonalEdgeStyle;rounded=0;orthogonalLoop=1;jettySize=auto;html=1;exitX=1;exitY=0;exitDx=0;exitDy=0;entryX=0.25;entryY=1;entryDx=0;entryDy=0;" edge="1" parent="1" source="Cs67nd-qoP5mz5DRE6a3-22" target="Cs67nd-qoP5mz5DRE6a3-2">
          <mxGeometry relative="1" as="geometry" />
        </mxCell>
        <mxCell id="Cs67nd-qoP5mz5DRE6a3-40" value="PrivateTagToDeck" style="edgeLabel;html=1;align=center;verticalAlign=middle;resizable=0;points=[];" vertex="1" connectable="0" parent="Cs67nd-qoP5mz5DRE6a3-35">
          <mxGeometry x="0.003" y="1" relative="1" as="geometry">
            <mxPoint as="offset" />
          </mxGeometry>
        </mxCell>
        <mxCell id="Cs67nd-qoP5mz5DRE6a3-22" value="Private Tag" style="rounded=0;whiteSpace=wrap;html=1;" vertex="1" parent="1">
          <mxGeometry x="-120" y="500" width="120" height="60" as="geometry" />
        </mxCell>
        <mxCell id="Cs67nd-qoP5mz5DRE6a3-24" style="edgeStyle=orthogonalEdgeStyle;rounded=0;orthogonalLoop=1;jettySize=auto;html=1;exitX=0.5;exitY=1;exitDx=0;exitDy=0;entryX=0.583;entryY=1;entryDx=0;entryDy=0;entryPerimeter=0;" edge="1" parent="1" source="Cs67nd-qoP5mz5DRE6a3-21" target="Cs67nd-qoP5mz5DRE6a3-3">
          <mxGeometry relative="1" as="geometry" />
        </mxCell>
        <mxCell id="Cs67nd-qoP5mz5DRE6a3-46" value="GlobalTagToCard" style="edgeLabel;html=1;align=center;verticalAlign=middle;resizable=0;points=[];" vertex="1" connectable="0" parent="Cs67nd-qoP5mz5DRE6a3-24">
          <mxGeometry x="-0.1526" y="-1" relative="1" as="geometry">
            <mxPoint as="offset" />
          </mxGeometry>
        </mxCell>
        <mxCell id="Cs67nd-qoP5mz5DRE6a3-37" style="edgeStyle=orthogonalEdgeStyle;rounded=0;orthogonalLoop=1;jettySize=auto;html=1;exitX=1;exitY=0.5;exitDx=0;exitDy=0;entryX=0.75;entryY=0;entryDx=0;entryDy=0;" edge="1" parent="1" source="Cs67nd-qoP5mz5DRE6a3-25" target="Cs67nd-qoP5mz5DRE6a3-2">
          <mxGeometry relative="1" as="geometry" />
        </mxCell>
        <mxCell id="Cs67nd-qoP5mz5DRE6a3-53" value="CommentToDeck" style="edgeLabel;html=1;align=center;verticalAlign=middle;resizable=0;points=[];" vertex="1" connectable="0" parent="Cs67nd-qoP5mz5DRE6a3-37">
          <mxGeometry x="0.3768" y="-2" relative="1" as="geometry">
            <mxPoint as="offset" />
          </mxGeometry>
        </mxCell>
        <mxCell id="Cs67nd-qoP5mz5DRE6a3-38" style="edgeStyle=orthogonalEdgeStyle;rounded=0;orthogonalLoop=1;jettySize=auto;html=1;exitX=1;exitY=0.25;exitDx=0;exitDy=0;entryX=1;entryY=0.25;entryDx=0;entryDy=0;" edge="1" parent="1" source="Cs67nd-qoP5mz5DRE6a3-25" target="Cs67nd-qoP5mz5DRE6a3-3">
          <mxGeometry relative="1" as="geometry" />
        </mxCell>
        <mxCell id="Cs67nd-qoP5mz5DRE6a3-52" value="CommentToCard" style="edgeLabel;html=1;align=center;verticalAlign=middle;resizable=0;points=[];" vertex="1" connectable="0" parent="Cs67nd-qoP5mz5DRE6a3-38">
          <mxGeometry x="-0.1188" y="-2" relative="1" as="geometry">
            <mxPoint x="-18" y="94" as="offset" />
          </mxGeometry>
        </mxCell>
        <mxCell id="Cs67nd-qoP5mz5DRE6a3-25" value="Comment" style="rounded=0;whiteSpace=wrap;html=1;" vertex="1" parent="1">
          <mxGeometry x="290" y="180" width="120" height="60" as="geometry" />
        </mxCell>
        <mxCell id="Cs67nd-qoP5mz5DRE6a3-29" style="edgeStyle=orthogonalEdgeStyle;rounded=0;orthogonalLoop=1;jettySize=auto;html=1;exitX=1;exitY=0.5;exitDx=0;exitDy=0;entryX=0.75;entryY=1;entryDx=0;entryDy=0;" edge="1" parent="1" source="Cs67nd-qoP5mz5DRE6a3-27" target="Cs67nd-qoP5mz5DRE6a3-3">
          <mxGeometry relative="1" as="geometry" />
        </mxCell>
        <mxCell id="Cs67nd-qoP5mz5DRE6a3-48" value="RatingToCard" style="edgeLabel;html=1;align=center;verticalAlign=middle;resizable=0;points=[];" vertex="1" connectable="0" parent="Cs67nd-qoP5mz5DRE6a3-29">
          <mxGeometry x="-0.3884" y="2" relative="1" as="geometry">
            <mxPoint as="offset" />
          </mxGeometry>
        </mxCell>
        <mxCell id="Cs67nd-qoP5mz5DRE6a3-30" style="edgeStyle=orthogonalEdgeStyle;rounded=0;orthogonalLoop=1;jettySize=auto;html=1;exitX=0.5;exitY=1;exitDx=0;exitDy=0;entryX=0.75;entryY=1;entryDx=0;entryDy=0;" edge="1" parent="1" source="Cs67nd-qoP5mz5DRE6a3-27" target="Cs67nd-qoP5mz5DRE6a3-2">
          <mxGeometry relative="1" as="geometry">
            <mxPoint x="600" y="310" as="targetPoint" />
            <Array as="points">
              <mxPoint x="40" y="815" />
              <mxPoint x="520" y="815" />
              <mxPoint x="520" y="350" />
              <mxPoint x="440" y="350" />
            </Array>
          </mxGeometry>
        </mxCell>
        <mxCell id="Cs67nd-qoP5mz5DRE6a3-50" value="RatingToDeck" style="edgeLabel;html=1;align=center;verticalAlign=middle;resizable=0;points=[];" vertex="1" connectable="0" parent="Cs67nd-qoP5mz5DRE6a3-30">
          <mxGeometry x="-0.5078" y="-2" relative="1" as="geometry">
            <mxPoint as="offset" />
          </mxGeometry>
        </mxCell>
        <mxCell id="Cs67nd-qoP5mz5DRE6a3-27" value="Rating" style="rounded=0;whiteSpace=wrap;html=1;" vertex="1" parent="1">
          <mxGeometry x="-20" y="735" width="120" height="60" as="geometry" />
        </mxCell>
      </root>
    </mxGraphModel>
  </diagram>
</mxfile>
